<?xml version="1.0" encoding="UTF-8"?>
<svg width="800" height="500" viewBox="0 0 800 500" fill="none" xmlns="http://www.w3.org/2000/svg">
  <!-- Analytics Background -->
  <rect width="800" height="500" fill="#ffffff"/>
  
  <!-- Header -->
  <rect x="20" y="20" width="760" height="60" rx="8" fill="#f8fafc"/>
  
  <!-- Charts -->
  <rect x="20" y="100" width="370" height="180" rx="8" fill="#f1f5f9"/>
  <circle cx="205" cy="190" r="70" stroke="#2563eb" stroke-width="30" fill="none"/>
  
  <rect x="410" y="100" width="370" height="180" rx="8" fill="#f1f5f9"/>
  <rect x="430" y="140" width="40" height="120" fill="#2563eb"/>
  <rect x="490" y="160" width="40" height="100" fill="#2563eb"/>
  <rect x="550" y="120" width="40" height="140" fill="#2563eb"/>
  <rect x="610" y="180" width="40" height="80" fill="#2563eb"/>
  <rect x="670" y="140" width="40" height="120" fill="#2563eb"/>
  
  <!-- Data Table -->
  <rect x="20" y="300" width="760" height="180" rx="8" fill="#f1f5f9"/>
  <rect x="40" y="320" width="720" height="1" fill="#e2e8f0"/>
  <rect x="40" y="360" width="720" height="1" fill="#e2e8f0"/>
  <rect x="40" y="400" width="720" height="1" fill="#e2e8f0"/>
  <rect x="40" y="440" width="720" height="1" fill="#e2e8f0"/>
</svg>
