<?xml version="1.0" encoding="UTF-8"?>
<svg width="800" height="500" viewBox="0 0 800 500" fill="none" xmlns="http://www.w3.org/2000/svg">
  <!-- Dashboard Background -->
  <rect width="800" height="500" fill="#ffffff"/>
  
  <!-- Sidebar -->
  <rect x="0" y="0" width="200" height="500" fill="#f8fafc"/>
  <rect x="20" y="20" width="160" height="40" rx="8" fill="#2563eb"/>
  <rect x="20" y="80" width="160" height="30" rx="6" fill="#e2e8f0"/>
  <rect x="20" y="120" width="160" height="30" rx="6" fill="#e2e8f0"/>
  <rect x="20" y="160" width="160" height="30" rx="6" fill="#e2e8f0"/>
  
  <!-- Main Content -->
  <rect x="220" y="20" width="560" height="100" rx="8" fill="#f1f5f9"/>
  <rect x="220" y="140" width="270" height="160" rx="8" fill="#f1f5f9"/>
  <rect x="510" y="140" width="270" height="160" rx="8" fill="#f1f5f9"/>
  <rect x="220" y="320" width="560" height="160" rx="8" fill="#f1f5f9"/>
  
  <!-- Charts (simplified) -->
  <path d="M240 200 L300 180 L360 190 L420 170 L480 160" stroke="#2563eb" stroke-width="2"/>
  <path d="M530 260 L590 240 L650 250 L710 230 L770 220" stroke="#2563eb" stroke-width="2"/>
</svg>
